<mxfile host="65bd71144e" scale="3" border="20">
    <diagram id="CX3G9Xh7dB3GCvSDx5av" name="第 1 页">
        <mxGraphModel dx="887" dy="523" grid="0" gridSize="10" guides="1" tooltips="1" connect="1" arrows="1" fold="1" page="0" pageScale="1" pageWidth="1169" pageHeight="827" background="#ffffff" math="0" shadow="0">
            <root>
                <mxCell id="0"/>
                <mxCell id="1" parent="0"/>
                <mxCell id="249" value="" style="edgeStyle=none;html=1;strokeColor=#000000;" parent="1" source="247" target="248" edge="1">
                    <mxGeometry relative="1" as="geometry"/>
                </mxCell>
                <mxCell id="247" value="教师组卷" style="rounded=0;whiteSpace=wrap;html=1;fillColor=#FFFFFF;fontColor=#000000;strokeColor=#000000;" parent="1" vertex="1">
                    <mxGeometry x="175" y="231" width="120" height="60" as="geometry"/>
                </mxCell>
                <mxCell id="255" value="" style="edgeStyle=none;html=1;strokeColor=#000000;fontColor=#000000;" parent="1" source="248" target="254" edge="1">
                    <mxGeometry relative="1" as="geometry"/>
                </mxCell>
                <mxCell id="248" value="获取教师试卷库" style="rounded=0;whiteSpace=wrap;html=1;fillColor=#FFFFFF;fontColor=#000000;strokeColor=#000000;" parent="1" vertex="1">
                    <mxGeometry x="377" y="231" width="120" height="60" as="geometry"/>
                </mxCell>
                <mxCell id="250" value="&lt;font color=&quot;#000000&quot;&gt;发布试卷&lt;/font&gt;" style="text;html=1;align=center;verticalAlign=middle;resizable=0;points=[];autosize=1;strokeColor=none;fillColor=none;" parent="1" vertex="1">
                    <mxGeometry x="295" y="231" width="66" height="26" as="geometry"/>
                </mxCell>
                <mxCell id="251" value="数据库" style="shape=cylinder3;whiteSpace=wrap;html=1;boundedLbl=1;backgroundOutline=1;size=15;fontColor=#000000;fillColor=#FFFFFF;strokeColor=#000000;" parent="1" vertex="1">
                    <mxGeometry x="634" y="221" width="60" height="80" as="geometry"/>
                </mxCell>
                <mxCell id="252" value="" style="shape=flexArrow;endArrow=classic;startArrow=classic;html=1;strokeColor=#000000;fontColor=#000000;entryX=0;entryY=0.5;entryDx=0;entryDy=0;entryPerimeter=0;exitX=1;exitY=0.5;exitDx=0;exitDy=0;" parent="1" source="248" target="251" edge="1">
                    <mxGeometry width="100" height="100" relative="1" as="geometry">
                        <mxPoint x="484" y="456" as="sourcePoint"/>
                        <mxPoint x="584" y="356" as="targetPoint"/>
                    </mxGeometry>
                </mxCell>
                <mxCell id="257" value="" style="edgeStyle=none;html=1;strokeColor=#000000;fontColor=#000000;" parent="1" source="254" target="256" edge="1">
                    <mxGeometry relative="1" as="geometry"/>
                </mxCell>
                <mxCell id="254" value="遍历试卷库&lt;br&gt;提取试卷" style="whiteSpace=wrap;html=1;rounded=0;fillColor=#FFFFFF;fontColor=#000000;strokeColor=#000000;" parent="1" vertex="1">
                    <mxGeometry x="377" y="337" width="120" height="60" as="geometry"/>
                </mxCell>
                <mxCell id="259" value="" style="edgeStyle=none;html=1;strokeColor=#000000;fontColor=#000000;" parent="1" source="256" target="258" edge="1">
                    <mxGeometry relative="1" as="geometry"/>
                </mxCell>
                <mxCell id="256" value="提取两者题目ID集合" style="whiteSpace=wrap;html=1;rounded=0;fillColor=#FFFFFF;fontColor=#000000;strokeColor=#000000;" parent="1" vertex="1">
                    <mxGeometry x="377" y="443" width="120" height="60" as="geometry"/>
                </mxCell>
                <mxCell id="261" style="edgeStyle=none;html=1;exitX=0.5;exitY=1;exitDx=0;exitDy=0;entryX=0.5;entryY=0;entryDx=0;entryDy=0;strokeColor=#000000;fontColor=#000000;" parent="1" source="258" target="260" edge="1">
                    <mxGeometry relative="1" as="geometry"/>
                </mxCell>
                <mxCell id="258" value="计算ID集合交集率" style="whiteSpace=wrap;html=1;rounded=0;fillColor=#FFFFFF;fontColor=#000000;strokeColor=#000000;" parent="1" vertex="1">
                    <mxGeometry x="377" y="554" width="120" height="60" as="geometry"/>
                </mxCell>
                <mxCell id="265" style="edgeStyle=none;rounded=0;html=1;exitX=1;exitY=0.5;exitDx=0;exitDy=0;entryX=0.5;entryY=1;entryDx=0;entryDy=0;entryPerimeter=0;strokeColor=#000000;fontColor=#000000;" parent="1" source="260" target="251" edge="1">
                    <mxGeometry relative="1" as="geometry">
                        <Array as="points">
                            <mxPoint x="664" y="711"/>
                        </Array>
                    </mxGeometry>
                </mxCell>
                <mxCell id="267" value="" style="edgeStyle=none;html=1;fontColor=#000000;strokeColor=#000000;" edge="1" parent="1" source="260" target="266">
                    <mxGeometry relative="1" as="geometry"/>
                </mxCell>
                <mxCell id="260" value="是否大于80%" style="rhombus;whiteSpace=wrap;html=1;rounded=0;fontColor=#000000;fillColor=#FFFFFF;strokeColor=#000000;" parent="1" vertex="1">
                    <mxGeometry x="384.5" y="671" width="105" height="80" as="geometry"/>
                </mxCell>
                <mxCell id="264" value="否" style="text;html=1;align=center;verticalAlign=middle;resizable=0;points=[];autosize=1;strokeColor=none;fillColor=none;fontColor=#000000;" parent="1" vertex="1">
                    <mxGeometry x="560" y="685" width="30" height="26" as="geometry"/>
                </mxCell>
                <mxCell id="274" style="edgeStyle=none;html=1;exitX=0.5;exitY=1;exitDx=0;exitDy=0;entryX=0.5;entryY=0;entryDx=0;entryDy=0;entryPerimeter=0;strokeColor=#000000;fontColor=#000000;" edge="1" parent="1" source="266" target="273">
                    <mxGeometry relative="1" as="geometry"/>
                </mxCell>
                <mxCell id="266" value="前端提示" style="whiteSpace=wrap;html=1;fillColor=#FFFFFF;strokeColor=#000000;fontColor=#000000;rounded=0;" vertex="1" parent="1">
                    <mxGeometry x="377" y="794" width="120" height="60" as="geometry"/>
                </mxCell>
                <mxCell id="268" value="是" style="text;html=1;align=center;verticalAlign=middle;resizable=0;points=[];autosize=1;strokeColor=none;fillColor=none;fontColor=#000000;" vertex="1" parent="1">
                    <mxGeometry x="453" y="755" width="30" height="26" as="geometry"/>
                </mxCell>
                <mxCell id="272" style="edgeStyle=none;html=1;exitX=1;exitY=0.5;exitDx=0;exitDy=0;exitPerimeter=0;entryX=0;entryY=0.5;entryDx=0;entryDy=0;strokeColor=#000000;fontColor=#000000;" edge="1" parent="1" source="271" target="247">
                    <mxGeometry relative="1" as="geometry"/>
                </mxCell>
                <mxCell id="271" value="开始" style="strokeWidth=2;html=1;shape=mxgraph.flowchart.terminator;whiteSpace=wrap;strokeColor=#000000;fontColor=#000000;fillColor=#FFFFFF;" vertex="1" parent="1">
                    <mxGeometry x="52" y="231" width="100" height="60" as="geometry"/>
                </mxCell>
                <mxCell id="273" value="结束" style="strokeWidth=2;html=1;shape=mxgraph.flowchart.terminator;whiteSpace=wrap;strokeColor=#000000;fontColor=#000000;fillColor=#FFFFFF;" vertex="1" parent="1">
                    <mxGeometry x="387" y="889" width="100" height="60" as="geometry"/>
                </mxCell>
            </root>
        </mxGraphModel>
    </diagram>
</mxfile>